<svg width="234" height="67" viewBox="0 0 234 67" fill="none" xmlns="http://www.w3.org/2000/svg">
<path d="M19.5027 21.0464C20.5398 21.6816 21.6305 22.2366 22.7589 22.7187C24.2305 18.5489 26.2586 15.463 28.565 13.1255C27.8625 12.7847 27.227 12.3993 26.6772 11.9646C27.3707 12.2975 28.0986 12.588 28.8507 12.8418C30.1965 11.5255 31.632 10.4539 33.1024 9.56268C33.112 9.56155 33.121 9.55985 33.1306 9.55928C32.668 9.29648 32.4038 8.99468 32.4038 8.67253C32.4038 8.03389 33.4421 7.47211 35.0117 7.14771C25.542 8.27861 17.6216 14.4717 14.0149 22.9538C15.5382 25.1653 16.8915 27.8968 17.1337 30.4186C17.5799 35.0829 15.3901 37.8183 15.3901 37.8183C15.3901 37.8183 15.3901 37.8183 15.6582 38.2219C16.0605 37.191 17.0886 34.4997 18.7427 32.5272C18.9663 31.7196 18.6086 30.509 17.4013 29.7912C18.0272 29.9257 19.5027 30.5531 19.5027 32.6165C19.5027 32.6165 19.9229 33.1252 20.5145 33.9752C20.5331 33.7401 20.5528 33.5038 20.5748 33.2665C20.9246 29.5279 21.5804 26.3273 22.4694 23.5761C21.0412 22.7826 20.0007 21.9207 19.5027 21.0464Z" fill="#0F4069"/>
<path d="M29.471 13.5244C27.3792 15.919 25.5066 19.2677 24.2125 23.2917C28.253 24.7611 32.6862 25.3783 36.9007 25.4585C37.0258 21.9675 37.1931 18.5392 37.3863 15.138C34.5289 14.9441 31.7312 14.4321 29.471 13.5244Z" fill="#0F4069"/>
<path d="M43.8836 8.67253C43.8836 9.00824 43.5963 9.32191 43.0977 9.5915C44.7286 10.5851 46.3151 11.8007 47.7838 13.3273C48.4531 13.1475 48.9849 12.9582 49.3415 12.7723C51.9905 11.3927 50.0959 9.84696 50.0959 9.84696C47.3945 8.45664 44.4205 7.52298 41.2758 7.14771C42.8453 7.47211 43.8836 8.03389 43.8836 8.67253Z" fill="#0F4069"/>
<path d="M29.8135 13.1426C32.2529 13.8456 34.8951 14.1842 37.4359 14.2797C37.486 13.4206 37.5378 12.5627 37.5908 11.7065V10.4931L37.6668 10.4925C37.6668 10.4902 37.6668 10.4885 37.6668 10.4863H37.6702C36.2872 10.4507 35.0432 10.2596 34.112 9.96802C34.0973 9.9765 34.0889 9.98102 34.0889 9.98102C32.645 10.575 31.187 11.6545 29.8135 13.1426Z" fill="#0F4069"/>
<path d="M46.7275 13.5777C45.251 11.8743 43.6639 10.6467 42.0921 9.99341C41.0865 10.2958 39.7361 10.484 38.2466 10.4919C38.2466 10.4919 38.2466 10.4919 38.2466 10.4925L38.3226 10.493V11.7064C38.3762 12.5717 38.428 13.4376 38.4787 14.3051C41.669 14.3446 44.6267 14.0185 46.7275 13.5777Z" fill="#0F4069"/>
<path d="M47.4925 14.5154C44.9647 15.0585 41.7507 15.323 38.5299 15.1987C38.722 18.579 38.8882 21.9864 39.0127 25.4554C44.2858 25.3378 49.0322 24.4302 51.9725 23.3902C50.8457 19.8511 49.2711 16.8309 47.4925 14.5154Z" fill="#0F4069"/>
<path d="M52.3432 11.1484V11.149C52.9128 12.4195 51.3072 13.5097 48.6177 14.2427C50.5112 16.4413 52.1708 19.223 53.4221 22.7983C53.4227 22.7983 53.4227 22.7983 53.4227 22.7983C59.8806 19.7006 57.2254 15.225 57.2254 15.225C55.7713 13.6776 54.1319 12.307 52.3432 11.1484Z" fill="#0F4069"/>
<path d="M23.8965 54.5904C23.4429 53.5776 22.9106 52.25 22.399 50.6438C21.7123 51.7464 21.0385 52.4116 20.7681 52.7095C21.5534 53.4069 22.3804 54.058 23.2452 54.6582C23.4683 54.6322 23.6852 54.6096 23.8965 54.5904Z" fill="#0F4069"/>
<path d="M53.2952 54.4801C57.8005 51.2744 61.2528 46.6779 63.0303 41.3145C62.4382 41.7061 59.4044 43.6441 55.0924 45.213C54.3651 49.293 53.1983 52.4641 52.311 54.4676C52.6361 54.4643 52.9645 54.4676 53.2952 54.4801Z" fill="#0F4069"/>
<path d="M59.8805 18.55C59.2625 21.2007 57.3825 23.2285 54.0282 24.7064C54.7431 27.1949 55.2755 30.0286 55.578 33.2665C55.889 36.5976 55.8068 39.667 55.4986 42.4138C59.4247 40.9698 62.8906 38.7792 64.2674 35.2864C64.3283 34.5777 64.3604 33.8611 64.3638 33.1371C64.3384 27.7346 62.6894 22.717 59.8805 18.55Z" fill="#0F4069"/>
<path d="M52.5224 25.2986C50.2103 26.1102 47.3343 26.7194 43.8431 27.1422C42.2927 27.3304 40.6883 27.4038 39.077 27.3795C39.2551 33.1228 39.3125 39.0514 39.1784 45.3242C39.3891 45.3197 39.5993 45.3141 39.8088 45.3073V35.0715H43.5643V40.7339L45.6679 38.7355L49.8689 42.3141H48.3028V44.3233C49.852 44.0255 51.4835 43.6615 53.0936 43.1969C53.4818 40.9555 53.7393 38.454 53.7674 35.7107C53.8057 31.9659 53.341 28.4573 52.5224 25.2986Z" fill="#0F4069"/>
<path d="M37.2179 57.3869C37.0122 53.8856 36.8697 50.502 36.7801 47.2161C31.547 46.786 27.6462 45.5138 24.9342 43.1107C25.2705 43.265 25.6215 43.4102 25.9843 43.5476C26.1989 42.866 26.2834 41.6655 26.3161 40.924H25.048L26.1488 40.1243C26.0964 40.0379 26.057 39.9486 26.057 39.9486C25.2694 40.2181 25.1184 39.5117 25.1353 39.2427C24.5483 39.3941 24.1404 38.7883 24.2857 38.2502C23.5088 38.3847 22.9393 36.8882 24.1128 36.501C23.2908 35.694 24.5094 34.853 24.8891 35.3407C24.4812 34.315 25.5375 34.1138 25.6716 34.307C25.466 33.0055 27.88 32.1673 27.9848 34.2415C28.773 34.0629 28.9741 34.9711 28.8062 35.2735C29.6783 35.0548 30.0135 35.946 29.5605 36.5683C29.9617 36.527 30.125 36.9616 30.1307 37.2318L30.6411 36.861L30.7509 36.9498V31.54H36.1993V45.3035C36.3773 45.3098 36.5559 45.3154 36.7345 45.3199C36.6004 39.0143 36.659 33.0563 36.8393 27.2848C31.9802 26.9502 27.249 25.7978 23.9066 24.2922C22.9179 27.7053 22.3432 31.5631 22.3855 35.7109C22.3905 36.1891 22.4029 36.6593 22.4215 37.1227C23.4176 39.0516 24.2857 41.3626 24.2857 43.5594C24.2857 44.8599 24.1359 46.0061 23.897 47.0092C24.8097 50.4144 25.9505 52.9605 26.7781 54.5418C29.5211 54.734 31.3532 55.6507 34.0754 56.6985C35.1565 57.115 36.2151 57.3207 37.2179 57.3869Z" fill="#0F4069"/>
<path d="M49.2925 54.6977C50.199 52.9926 51.5257 50.0605 52.4998 46.0557C50.2942 46.6853 47.8621 47.1577 45.3185 47.281C43.096 47.3889 41.0352 47.4155 39.1294 47.3499C39.0398 50.5945 38.8978 53.9336 38.6956 57.3873C41.2347 57.2279 43.2403 56.2982 44.0447 55.9806C44.6994 55.7235 46.714 55.0543 49.2925 54.6977Z" fill="#0F4069"/>
<path d="M29.5605 36.5683C30.0135 35.946 29.6783 35.0547 28.8062 35.2735C28.974 34.9711 28.7729 34.0629 27.9848 34.2415C27.88 32.1673 25.4659 33.0054 25.6716 34.307C25.5375 34.1137 24.4812 34.3149 24.8891 35.3407C24.5093 34.853 23.2908 35.6939 24.1127 36.501C22.9392 36.8881 23.5088 38.3847 24.2857 38.2502C24.1403 38.7882 24.5482 39.3941 25.1352 39.2426C25.1183 39.5117 25.2693 40.2181 26.0569 39.9485C26.0569 39.9485 26.0964 40.0378 26.1487 40.1243L30.1306 37.2318C30.125 36.9616 29.9616 36.527 29.5605 36.5683Z" fill="#8EC643"/>
<path d="M26.3161 40.9238C26.2834 41.6653 26.1989 42.8658 25.9843 43.5473C26.3054 43.6683 26.6361 43.7825 26.9752 43.8904V40.9238H26.3161Z" fill="#8EC643"/>
<path d="M35.0201 33.3847H34.2714V32.6336H35.0201V33.3847ZM33.8495 33.3847H33.1007V32.6336H33.8495V33.3847ZM32.6399 33.3847H31.8906V32.6336H32.6399V33.3847ZM31.2202 32.0107V37.3279L35.5249 40.7963H33.4162V45.1227C34.179 45.1956 34.9525 45.2493 35.73 45.2843V32.0107H31.2202Z" fill="#09446A"/>
<path d="M30.751 31.5398V36.9496L30.6411 36.8609L30.1307 37.2316L26.1488 40.1242L25.048 40.9239H26.9753V43.8904C27.1302 43.9396 27.2862 43.9871 27.4445 44.034V40.4531H26.4964L30.6265 37.4532L34.1909 40.3248H32.947V45.0745C33.103 45.0914 33.2596 45.1073 33.4163 45.1225V40.7961H35.5249L31.2202 37.3277V32.0106H35.73V45.2842C35.8861 45.2915 36.0427 45.2977 36.1993 45.3034V31.5398H30.751Z" fill="white"/>
<path d="M41.491 36.8486H40.7423V36.0975H41.491V36.8486ZM41.491 38.0258H40.7423V37.2747H41.491V38.0258ZM41.9271 37.2747H42.6758V38.0258H41.9271V37.2747ZM41.9271 36.0975H42.6758V36.8486H41.9271V36.0975ZM41.7119 42.4941L43.0944 41.18V35.5425H40.2781V45.29C41.2358 45.2504 42.1789 45.186 43.0944 45.0989V42.4941H41.7119Z" fill="#09446A"/>
<path d="M44.7765 42.7629H44.0278V42.0112H44.7765V42.7629ZM48.5911 41.8434L45.6847 39.3679L42.8904 42.0225H43.5642V45.0518C44.5715 44.9467 45.5422 44.8139 46.4588 44.6573C46.9061 44.581 47.3658 44.4997 47.8328 44.4126V41.8434H48.5911Z" fill="#09446A"/>
<path d="M49.8689 42.3142L45.6679 38.7355L43.5643 40.734V35.0715H39.8088V45.3073C39.966 45.3022 40.1221 45.296 40.2781 45.2898V35.5423H43.0944V41.1799L41.7119 42.4939H43.0944V45.0988C43.2522 45.0835 43.4082 45.0683 43.5643 45.0519V42.0226H42.8905L45.6848 39.368L48.5912 41.8434H47.8329V44.4127C47.989 44.3833 48.145 44.3539 48.3028 44.3234V42.3142H49.8689Z" fill="white"/>
<path d="M45.2406 58.5963C45.2365 58.5975 45.233 58.5987 45.2295 58.5998C45.24 58.5969 45.2511 58.5934 45.2621 58.5911C45.2551 58.5928 45.2476 58.5946 45.2406 58.5963Z" fill="#FDC32E"/>
<path d="M45.2611 58.5911C45.3118 58.5781 45.3636 58.5629 45.4172 58.5459C45.3642 58.5629 45.3118 58.5781 45.2611 58.5911Z" fill="#FDC32E"/>
<path d="M48.8253 57.2986C48.824 57.2993 48.8226 57.2993 48.8213 57.2993C48.8193 57.2999 48.8179 57.3006 48.8159 57.3006C48.8193 57.2999 48.822 57.2993 48.8253 57.2986Z" fill="#FDC32E"/>
<path d="M49.0757 57.2422C49.0794 57.241 49.0836 57.2404 49.0879 57.2397C49.0836 57.2404 49.0794 57.2416 49.0757 57.2422Z" fill="#FDC32E"/>
<mask id="mask0_104_361" style="mask-type:luminance" maskUnits="userSpaceOnUse" x="0" y="4" width="67" height="54">
<path d="M0 4.1958H66.9998V57.4393H0V4.1958Z" fill="white"/>
</mask>
<g mask="url(#mask0_104_361)">
<path d="M4.75038 44.0521C6.4602 44.0181 11.2657 43.8198 14.8758 46.1709C14.8758 46.1709 14.9941 47.1757 15.4262 48.5401C14.6336 48.3485 13.5496 48.3281 12.7299 49.4336C15.2082 49.1358 16.4369 50.985 16.4718 51.0381C16.4724 51.0387 16.4724 51.0392 16.4724 51.0392C16.7186 51.4959 16.9997 51.9526 17.3231 52.3934C9.88042 53.1671 5.95768 48.0207 4.75038 44.0521ZM3.4428 32.5152C3.4428 32.5152 7.53342 32.9527 10.6849 34.8697C13.8364 36.7868 15.2443 39.4776 15.2443 39.4776C15.2443 39.4776 14.8758 40.3858 14.8758 41.025C14.2054 39.4776 11.9226 37.8968 10.2827 39.2425C11.1204 39.4103 14.0375 40.487 14.0375 42.976C14.0375 42.976 10.4167 42.4374 8.53903 41.207C6.66133 39.976 4.31433 37.3254 3.4428 32.5152ZM10.7181 21.7861C14.8758 25.7547 15.3096 29.153 15.3789 30.8672C15.4792 33.3562 14.1384 36.0131 14.1384 36.0131C13.6505 35.3417 13.0781 34.7618 12.4922 34.2707C12.2635 33.3941 12.0443 31.9693 12.7299 31.1701C11.188 31.6409 11.1153 33.2664 11.1153 33.2664C10.2691 32.7272 9.52606 32.3824 9.1424 32.2129C8.30467 27.8068 8.841 24.981 10.7181 21.7861ZM64.2675 35.2863C62.8906 38.779 59.4248 40.9696 55.4987 42.4136C55.8068 39.6669 55.8891 36.5975 55.5781 33.2664C55.2756 30.0285 54.7432 27.1947 54.0283 24.7063C57.3826 23.2284 59.2625 21.2005 59.8805 18.5499C62.6895 22.7169 64.3385 27.7345 64.3638 33.1369C64.3644 33.1799 64.365 33.2234 64.365 33.2664C64.365 33.9225 64.3402 34.5736 64.2934 35.2179C64.2844 35.2405 64.2765 35.2637 64.2675 35.2863ZM48.3027 44.3233C48.145 44.3539 47.989 44.3832 47.8329 44.4126C47.3659 44.4997 46.9062 44.5811 46.4588 44.6573C45.5422 44.8139 44.5716 44.9467 43.5643 45.0518C43.4082 45.0682 43.2521 45.0835 43.0944 45.0987C42.1789 45.1858 41.2358 45.2502 40.2781 45.2898C40.1221 45.296 39.966 45.3022 39.8088 45.3073C39.5993 45.3141 39.3891 45.3197 39.1784 45.3242C39.3125 39.0514 39.255 33.1228 39.077 27.3795C40.6883 27.4038 42.2927 27.3304 43.8431 27.1422C47.3343 26.7194 50.2103 26.1102 52.5224 25.2986C53.341 28.4573 53.8057 31.9659 53.7674 35.7107C53.7393 38.454 53.4818 40.9555 53.0936 43.197C51.4835 43.6615 49.852 44.0255 48.3027 44.3233ZM24.2125 23.2917C25.5066 19.2677 27.3792 15.919 29.471 13.5244C31.7312 14.4321 34.5289 14.9441 37.3863 15.138C37.1931 18.5392 37.0258 21.9675 36.9007 25.4585C32.6862 25.3783 28.253 24.7611 24.2125 23.2917ZM50.096 9.84685C50.096 9.84685 51.9906 11.3926 49.3416 12.7722C48.985 12.9581 48.4532 13.1474 47.7839 13.3272C46.3152 11.8006 44.7287 10.585 43.0978 9.59139C43.5964 9.32181 43.8837 9.00814 43.8837 8.67243C43.8837 8.03379 42.8454 7.47201 41.2758 7.1476C44.4206 7.52287 47.3946 8.45653 50.096 9.84685ZM38.3227 11.7063V10.4928L38.2466 10.4923C38.2466 10.4917 38.2466 10.4917 38.2466 10.4917C39.7362 10.4838 41.0866 10.2956 42.0922 9.99323C43.664 10.6466 45.251 11.8741 46.7276 13.5775C44.6268 14.0184 41.6691 14.3445 38.4787 14.3049C38.428 13.4374 38.3762 12.5715 38.3227 11.7063ZM34.112 9.9678C35.0433 10.2594 36.2872 10.4505 37.6703 10.4861H37.6669C37.6669 10.4883 37.6669 10.49 37.6669 10.4923L37.5908 10.4928V11.7063C37.5379 12.5625 37.4861 13.4204 37.4359 14.2795C34.8951 14.184 32.2529 13.8454 29.8135 13.1424C31.187 11.6543 32.645 10.5748 34.0889 9.98079C34.0889 9.98079 34.0974 9.97627 34.112 9.9678ZM38.53 15.1984C41.7508 15.3228 44.9648 15.0583 47.4926 14.5152C49.2712 16.8307 50.8458 19.8509 51.9725 23.39C49.0323 24.4299 44.2859 25.3376 39.0128 25.4551C38.8883 21.9861 38.7221 18.5787 38.53 15.1984ZM53.4226 22.7983C53.4226 22.7983 53.4226 22.7983 53.4221 22.7983C52.1708 19.223 50.5112 16.4413 48.6177 14.2427C51.3072 13.5097 52.9128 12.4195 52.3432 11.149V11.1484C54.1319 12.307 55.7713 13.6776 57.2254 15.225C57.2254 15.225 59.8805 19.7006 53.4226 22.7983ZM20.5748 33.2664C20.5529 33.5037 20.5332 33.74 20.5146 33.9751C19.923 33.1251 19.5028 32.6164 19.5028 32.6164C19.5028 30.553 18.0273 29.9256 17.4014 29.7911C18.6087 30.5089 18.9664 31.7195 18.7428 32.5271C17.0887 34.4996 16.0606 37.1909 15.6583 38.2218C15.3902 37.8182 15.3902 37.8182 15.3902 37.8182C15.3902 37.8182 17.58 35.0828 17.1338 30.4185C16.8915 27.8967 15.5383 25.1652 14.015 22.9537C17.6217 14.4716 25.5421 8.2785 35.0117 7.1476C33.4422 7.47201 32.4039 8.03379 32.4039 8.67243C32.4039 8.99457 32.6681 9.29637 33.1307 9.55918C33.1211 9.55974 33.1121 9.56144 33.1025 9.56257C31.6321 10.4538 30.1966 11.5254 28.8507 12.8417C28.0986 12.5879 27.3708 12.2974 26.6773 11.9645C27.2271 12.3992 27.8626 12.7846 28.5651 13.1254C26.2587 15.4629 24.2306 18.5488 22.759 22.7186C21.6306 22.2365 20.5399 21.6815 19.5028 21.0463C20.0008 21.9206 21.0413 22.7825 22.4695 23.576C21.5805 26.3272 20.9247 29.5278 20.5748 33.2664ZM20.0166 50.4204C18.7647 49.3443 18.3405 46.2048 19.7259 45.1281C17.5501 45.3898 16.433 48.3733 19.4706 53.6622C19.443 53.6803 19.4149 53.6978 19.385 53.7159C15.8741 49.6472 15.8369 45.1174 15.8369 44.7698C15.8369 44.4104 16.3287 38.9395 19.1895 35.4417C20.4413 36.6975 22.1078 39.5872 22.3635 42.3029C22.6204 45.0275 22.3861 46.8773 20.0166 50.4204ZM18.3648 54.3438V54.3432C18.718 54.6772 19.0797 55.0022 19.4498 55.3181C20.7574 55.031 21.9067 54.8276 22.9337 54.6959C22.1376 54.1262 21.3754 53.513 20.6487 52.8597C20.6627 52.8291 20.7044 52.7794 20.7681 52.7093C21.0385 52.4115 21.7123 51.7463 22.399 50.6436C22.9106 52.2498 23.443 53.5774 23.8965 54.5902C24.9821 54.4919 25.924 54.4817 26.7781 54.5416C25.9505 52.9603 24.8097 50.4142 23.897 47.009C24.1359 46.0058 24.2858 44.8597 24.2858 43.5592C24.2858 41.3624 23.4176 39.0514 22.4216 37.1225C22.403 36.6591 22.3906 36.1888 22.3855 35.7107C22.3433 31.5629 22.9179 27.7051 23.9066 24.292C27.2491 25.7976 31.9803 26.95 36.8393 27.2846C36.659 33.0561 36.6004 39.0141 36.7345 45.3197C36.5559 45.3152 36.3774 45.3096 36.1993 45.3033C36.0427 45.2977 35.8861 45.2915 35.73 45.2841C34.9526 45.2491 34.1791 45.1954 33.4163 45.1225C33.2597 45.1072 33.103 45.0914 32.947 45.0744C30.9955 44.8659 29.1234 44.5257 27.4446 44.034C27.2863 43.9871 27.1302 43.9396 26.9753 43.8904C26.6361 43.7825 26.3054 43.6683 25.9843 43.5474C25.6215 43.41 25.2705 43.2648 24.9342 43.1105C27.6463 45.5136 31.547 46.7858 36.7802 47.2159C36.8697 50.5018 37.0123 53.8854 37.2179 57.3867C37.7261 57.4194 38.2201 57.4172 38.6956 57.3872C38.8979 53.9335 39.0398 50.5945 39.1294 47.3498C41.0353 47.4154 43.0961 47.3888 45.3186 47.2809C47.8622 47.1577 50.2943 46.6852 52.4998 46.0556C51.5258 50.0604 50.199 52.9925 49.2926 54.6976C50.2362 54.567 51.2554 54.4789 52.3111 54.4676C53.1984 52.464 54.3652 49.2929 55.0925 45.2129C59.4045 43.644 62.4382 41.706 63.0303 41.3144C63.0991 41.2686 63.1357 41.2437 63.1368 41.2426C61.4354 46.6134 58.0626 51.2359 53.63 54.4947C54.795 54.558 55.9837 54.7292 57.1471 55.0503C63.187 49.745 67.0004 41.9519 67.0004 33.2664C67.0004 17.2788 54.0807 4.31836 38.1435 4.31836C26.7285 4.31836 16.8617 10.9681 12.1818 20.6162C11.4967 19.8532 10.8528 19.2558 10.3379 18.8935C10.2939 16.786 8.28214 16.292 7.2985 16.4718C9.22127 16.6956 9.71253 19.0727 9.71253 19.0727C7.0754 23.1091 6.80724 29.9708 7.65623 31.4951C5.15262 30.553 1.39777 30.1947 1.39777 30.1947C0.325114 29.2977 0.325114 27.7277 0.593278 26.7861C-0.390365 27.6836 -0.077695 30.1054 0.995523 30.8672C1.44284 35.3524 4.87939 40.9137 6.62809 41.9892C4.88446 41.8993 2.15775 42.0338 2.15775 42.0338C0.861441 41.207 0.593278 40.4644 0.727359 39.1193C-0.211777 40.0156 0.280044 41.7648 1.88903 42.7069C3.72223 47.8641 6.76217 50.465 8.41622 51.9899C10.0697 53.5147 15.1226 55.0067 18.3648 54.3438Z" fill="#FDC32E"/>
</g>
<path d="M22.3635 42.3031C22.1078 39.5874 20.4413 36.6977 19.1895 35.4419C16.3287 38.9397 15.8369 44.4106 15.8369 44.77C15.8369 45.1176 15.8741 49.6474 19.385 53.7161C19.4149 53.698 19.443 53.6805 19.4706 53.6624C16.433 48.3735 17.5501 45.39 19.7259 45.1283C18.3405 46.205 18.7647 49.3445 20.0165 50.4206C22.3861 46.8775 22.6204 45.0277 22.3635 42.3031Z" fill="#BB6328"/>
<path d="M11.1152 33.2664C11.1152 33.2664 11.1879 31.641 12.7298 31.1702C12.0442 31.9694 12.2634 33.3942 12.4921 34.2707C13.078 34.7619 13.6504 35.3417 14.1383 36.0131C14.1383 36.0131 15.4791 33.3563 15.3788 30.8673C15.3095 29.1531 14.8757 25.7548 10.718 21.7861C8.8409 24.981 8.30458 27.8069 9.14231 32.2129C9.52596 32.3825 10.269 32.7273 11.1152 33.2664Z" fill="#BB6328"/>
<path d="M8.53899 41.2071C10.4167 42.4375 14.0375 42.9761 14.0375 42.9761C14.0375 40.4871 11.1203 39.4105 10.2826 39.2426C11.9226 37.8969 14.2054 39.4777 14.8758 41.0251C14.8758 40.3859 15.2442 39.4777 15.2442 39.4777C15.2442 39.4777 13.8363 36.7869 10.6849 34.8699C7.53337 32.9528 3.44275 32.5154 3.44275 32.5154C4.31428 37.3255 6.66128 39.9762 8.53899 41.2071Z" fill="#BB6328"/>
<path d="M17.3231 52.3936C16.9997 51.9527 16.7186 51.4961 16.4724 51.0394C16.4724 51.0394 16.4724 51.0389 16.4718 51.0383C16.4369 50.9852 15.2082 49.1359 12.7299 49.4338C13.5496 48.3283 14.6335 48.3486 15.4262 48.5402C14.9941 47.1759 14.8758 46.171 14.8758 46.171C11.2657 43.8199 6.46019 44.0183 4.75037 44.0522C5.95767 48.0208 9.88041 53.1673 17.3231 52.3936Z" fill="#BB6328"/>
<path d="M31.8906 33.3847H32.6399V32.6335H31.8906V33.3847Z" fill="white"/>
<path d="M34.2715 33.3847H35.0202V32.6335H34.2715V33.3847Z" fill="white"/>
<path d="M40.7423 36.8485H41.491V36.0974H40.7423V36.8485Z" fill="white"/>
<path d="M42.6757 36.0974H41.927V36.8485H42.6757V36.0974Z" fill="white"/>
<path d="M40.7423 38.0258H41.491V37.2747H40.7423V38.0258Z" fill="white"/>
<path d="M42.6757 37.2747H41.927V38.0258H42.6757V37.2747Z" fill="white"/>
<path d="M44.0278 42.7629H44.7765V42.0112H44.0278V42.7629Z" fill="white"/>
<path d="M33.1007 33.3847H33.8494V32.6335H33.1007V33.3847Z" fill="white"/>
<path d="M53.8423 57.1822C53.7207 57.163 53.6007 57.146 53.4818 57.1296C53.4576 57.1262 53.4328 57.1234 53.4086 57.12C53.2919 57.1047 53.177 57.0912 53.0638 57.0793C53.0412 57.0765 53.0187 57.0742 52.9967 57.072C52.8801 57.0601 52.7657 57.0494 52.6525 57.0398C52.6407 57.0392 52.6289 57.0381 52.617 57.0375C52.5066 57.0284 52.3973 57.0217 52.2903 57.0154C52.2767 57.0149 52.2632 57.0138 52.2497 57.0132C52.1404 57.007 52.0322 57.003 51.9258 56.9996C51.9066 56.9991 51.8875 56.9985 51.8683 56.9979C51.7641 56.9951 51.661 56.994 51.5596 56.9934C51.5415 56.9934 51.5241 56.9934 51.5066 56.9934C51.403 56.9934 51.3004 56.9951 51.2001 56.9974C51.19 56.9974 51.1799 56.9979 51.1697 56.9979C50.9568 57.0041 50.75 57.0149 50.5506 57.0307C50.5416 57.0313 50.5326 57.0318 50.5241 57.0324C50.4266 57.0403 50.3314 57.0494 50.2368 57.059C50.2272 57.0601 50.2171 57.0612 50.2075 57.0624C50.1123 57.0725 50.0188 57.0838 49.9269 57.0957C49.9219 57.0963 49.9168 57.0974 49.9117 57.098C49.6221 57.1364 49.3472 57.1844 49.0869 57.2398C49.083 57.2404 49.0791 57.241 49.0757 57.2421C48.99 57.2602 48.9061 57.2794 48.8239 57.2986C48.821 57.2992 48.8188 57.2997 48.816 57.3003C48.7185 57.3235 48.6233 57.3478 48.5298 57.3726C48.5287 57.3726 48.5275 57.3732 48.5264 57.3732C47.5473 57.6349 46.7901 57.9796 46.1805 58.2447C46.1473 58.2594 46.1135 58.2741 46.0808 58.2882C46.0656 58.2944 46.051 58.3006 46.0357 58.3074C45.989 58.3272 45.9428 58.347 45.8972 58.3656C45.8904 58.369 45.8836 58.3713 45.8769 58.3741C45.8284 58.3945 45.7805 58.4142 45.7338 58.4323C45.7293 58.434 45.7253 58.4357 45.7208 58.4374C45.6729 58.4561 45.6256 58.4742 45.5788 58.4911C45.576 58.4922 45.5732 58.4934 45.5704 58.4939C45.5231 58.5115 45.4769 58.5267 45.4318 58.5414C45.4312 58.542 45.4296 58.542 45.4284 58.5425C45.4267 58.5431 45.4245 58.5442 45.4228 58.5448C45.4205 58.5454 45.4194 58.5454 45.4172 58.5459C45.3636 58.5629 45.3118 58.5781 45.2611 58.5911C45.2504 58.5934 45.2397 58.5968 45.2296 58.5996C45.1608 58.6194 45.0915 58.6386 45.0222 58.6567C44.7045 58.75 44.3614 58.872 43.9727 59.0043C43.9597 59.0088 43.9468 59.0128 43.9338 59.0173C43.8978 59.0297 43.8611 59.0416 43.8245 59.054C43.8025 59.0614 43.78 59.0693 43.7575 59.0766C43.7259 59.0868 43.6944 59.0975 43.6623 59.1077C43.6358 59.1168 43.6093 59.1252 43.5823 59.1343C43.5524 59.1439 43.5214 59.1535 43.491 59.1637C43.4617 59.1727 43.433 59.1823 43.4031 59.1914C43.3733 59.201 43.3423 59.2106 43.3119 59.2202C43.2809 59.2298 43.2504 59.2394 43.2189 59.2484C43.1885 59.258 43.1564 59.2677 43.1254 59.2767C43.0933 59.2863 43.0612 59.2959 43.0285 59.3055C42.9952 59.3157 42.9609 59.3253 42.9265 59.3349C42.8736 59.3502 42.82 59.3654 42.7648 59.3801C42.7209 59.3926 42.6769 59.4044 42.6319 59.4169C42.6009 59.4248 42.5688 59.4327 42.5372 59.4412C42.4983 59.4513 42.4595 59.4615 42.4195 59.4711C42.3862 59.4796 42.3524 59.4875 42.3192 59.496C42.2792 59.5056 42.2398 59.5152 42.1992 59.5248C42.1643 59.5333 42.1288 59.5412 42.0938 59.5491C42.0527 59.5581 42.0122 59.5678 41.9705 59.5768C41.9344 59.5847 41.8978 59.5921 41.8612 59.6C41.8189 59.609 41.7761 59.6181 41.7327 59.6271C41.6955 59.6344 41.6578 59.6418 41.6201 59.6491C41.5755 59.6576 41.531 59.6667 41.486 59.6746C41.4477 59.6819 41.4088 59.6887 41.3699 59.696C41.3232 59.704 41.277 59.7124 41.2296 59.7204C41.1902 59.7271 41.1496 59.7334 41.1096 59.7401C41.0618 59.748 41.0133 59.7554 40.9643 59.7627C40.9232 59.769 40.8815 59.7752 40.8398 59.7814C40.7896 59.7887 40.7395 59.7955 40.6882 59.8023C40.646 59.808 40.6032 59.8136 40.5604 59.8193C40.508 59.826 40.455 59.8323 40.4015 59.8385C40.3581 59.8441 40.3142 59.8492 40.2702 59.8537C40.2156 59.8599 40.1592 59.8656 40.1035 59.8713C40.059 59.8758 40.0145 59.8803 39.9694 59.8848C39.9119 59.8899 39.8528 59.895 39.7942 59.9001C39.7485 59.904 39.7035 59.908 39.6578 59.9114C39.597 59.9159 39.535 59.9199 39.4731 59.9244C39.4269 59.9272 39.3807 59.9306 39.3339 59.9334C39.2691 59.9374 39.2032 59.9408 39.1373 59.9442C39.0917 59.9464 39.046 59.9492 38.9993 59.9509C38.9288 59.9543 38.8567 59.9566 38.7852 59.9589C38.7407 59.9605 38.6967 59.9622 38.6522 59.9634C38.5722 59.9656 38.49 59.9673 38.4083 59.9685C38.3694 59.9696 38.3317 59.9707 38.2922 59.9707C38.1705 59.9724 38.0466 59.973 37.9204 59.973C33.1273 59.9566 30.2975 58.3396 27.6361 57.4258C25.8159 56.8001 22.5748 57.5919 22.5173 57.6061C27.0209 60.5223 32.3853 62.2144 38.1435 62.2144C44.1282 62.2144 49.6875 60.3873 54.2959 57.2585C54.1623 57.2342 54.0311 57.2121 53.9015 57.1912C53.8818 57.1884 53.8621 57.185 53.8423 57.1822Z" fill="#1B91CE"/>
<path d="M53.2952 54.4802C52.9645 54.4678 52.6361 54.4644 52.311 54.4678C51.2553 54.4791 50.2361 54.5673 49.2925 54.6978C46.714 55.0544 44.6994 55.7236 44.0447 55.9808C43.2402 56.2984 41.2346 57.2281 38.6955 57.3875C38.22 57.4174 37.726 57.4197 37.2178 57.3869C36.215 57.3208 35.1564 57.115 34.0753 56.6985C31.3531 55.6507 29.5211 54.734 26.778 54.5418C25.9239 54.4819 24.982 54.4921 23.8964 54.5904C23.6851 54.6096 23.4682 54.6323 23.2451 54.6583C23.1426 54.6701 23.0389 54.6826 22.9336 54.6961C21.9066 54.8278 20.7573 55.0313 19.4497 55.3184C20.0525 55.8338 20.6767 56.3244 21.3201 56.7884C21.7122 57.071 22.1111 57.3434 22.5167 57.6062C22.5167 57.6062 22.5167 57.6062 22.5173 57.6062C22.5747 57.592 25.8158 56.8002 27.636 57.4259C30.2974 58.3398 33.1272 59.9567 37.9203 59.9731C38.0465 59.9731 38.1705 59.9725 38.2922 59.9708C38.3316 59.9708 38.3693 59.9697 38.4082 59.9686C38.4899 59.9675 38.5721 59.9658 38.6521 59.9635C38.6967 59.9624 38.7406 59.9607 38.7851 59.959C38.8566 59.9567 38.9288 59.9545 38.9992 59.9511C39.0459 59.9494 39.0916 59.9465 39.1372 59.9443C39.2031 59.9409 39.269 59.9375 39.3338 59.9335C39.3806 59.9307 39.4268 59.9273 39.473 59.9245C39.5349 59.92 39.5969 59.916 39.6578 59.9115C39.7034 59.9081 39.7485 59.9042 39.7941 59.9002C39.8527 59.8951 39.9118 59.89 39.9693 59.8849C40.0144 59.8804 40.0589 59.8759 40.1034 59.8714C40.1592 59.8657 40.2155 59.8601 40.2701 59.8539C40.3141 59.8493 40.358 59.8442 40.4014 59.8386C40.4549 59.8324 40.5079 59.8262 40.5603 59.8194C40.6031 59.8137 40.6459 59.8081 40.6882 59.8024C40.7394 59.7956 40.7896 59.7889 40.8397 59.7815C40.8814 59.7753 40.9231 59.7691 40.9642 59.7629C41.0132 59.7555 41.0617 59.7482 41.1096 59.7403C41.1496 59.7335 41.1901 59.7273 41.2296 59.7205C41.2769 59.7126 41.3231 59.7041 41.3698 59.6962C41.4087 59.6888 41.4476 59.682 41.4859 59.6747C41.531 59.6668 41.5755 59.6577 41.62 59.6493C41.6577 59.6419 41.6955 59.6346 41.7326 59.6272C41.776 59.6182 41.8188 59.6091 41.8611 59.6001C41.8977 59.5922 41.9343 59.5848 41.9704 59.5769C42.0121 59.5679 42.0526 59.5583 42.0938 59.5492C42.1287 59.5413 42.1642 59.5334 42.1991 59.5249C42.2397 59.5153 42.2791 59.5057 42.3191 59.4961C42.3524 59.4876 42.3862 59.4797 42.4194 59.4712C42.4594 59.4616 42.4983 59.4515 42.5371 59.4413C42.5687 59.4328 42.6008 59.4249 42.6318 59.417C42.6769 59.4045 42.7208 59.3927 42.7647 59.3802C42.82 59.3656 42.8735 59.3503 42.9264 59.335C42.9608 59.3254 42.9952 59.3158 43.0284 59.3056C43.0611 59.296 43.0932 59.2864 43.1253 59.2768C43.1563 59.2678 43.1884 59.2582 43.2188 59.2486C43.2504 59.2395 43.2808 59.2299 43.3118 59.2203C43.3422 59.2107 43.3732 59.2011 43.403 59.1915C43.4329 59.1824 43.4616 59.1728 43.4909 59.1638C43.5213 59.1536 43.5523 59.144 43.5822 59.1344C43.6092 59.1254 43.6357 59.1169 43.6622 59.1078C43.6943 59.0977 43.7258 59.0869 43.7574 59.0767C43.7799 59.0694 43.8025 59.0615 43.8244 59.0541C43.8611 59.0417 43.8977 59.0298 43.9337 59.0174C43.9467 59.0129 43.9596 59.0089 43.9726 59.0044C44.3613 58.8722 44.7044 58.7501 45.0222 58.6568C45.0915 58.6387 45.1608 58.6195 45.2295 58.5997C45.2329 58.5986 45.2362 58.5975 45.2402 58.5964C45.2469 58.5947 45.2543 58.593 45.261 58.5913C45.3117 58.5783 45.3641 58.563 45.4171 58.5461C45.4193 58.5455 45.4205 58.5455 45.4227 58.5449C45.4244 58.5444 45.4267 58.5432 45.4284 58.5427C45.4295 58.5421 45.4312 58.5421 45.4317 58.5415C45.4768 58.5268 45.523 58.511 45.5703 58.4941C45.5731 58.4935 45.576 58.4924 45.5788 58.4912C45.6255 58.4743 45.6729 58.4562 45.7207 58.4375C45.7252 58.4358 45.7292 58.4342 45.7337 58.4325C45.7805 58.4144 45.8283 58.3946 45.8768 58.3742C45.8836 58.3714 45.8903 58.3692 45.8971 58.3658C45.9427 58.3471 45.9889 58.3273 46.0357 58.3076C46.0509 58.3008 46.0655 58.2946 46.0807 58.2883C46.1134 58.2742 46.1472 58.2595 46.1804 58.2448C46.79 57.9798 47.5472 57.635 48.5263 57.3733C48.5274 57.3733 48.5286 57.3728 48.5297 57.3728C48.6232 57.3479 48.7184 57.3236 48.8159 57.3004C48.8176 57.3004 48.8187 57.2999 48.8204 57.2993C48.8215 57.2993 48.8226 57.2993 48.8238 57.2987C48.906 57.2795 48.99 57.2603 49.0756 57.2422C49.079 57.2416 49.0829 57.2405 49.0869 57.2399C49.3471 57.1846 49.6221 57.1365 49.9116 57.0981C49.9167 57.0975 49.9218 57.0964 49.9269 57.0958C50.0187 57.084 50.1122 57.0727 50.2074 57.0625C50.217 57.0614 50.2271 57.0602 50.2367 57.0591C50.3314 57.0495 50.4266 57.0404 50.524 57.0325C50.5325 57.032 50.5415 57.0314 50.5505 57.0308C50.7499 57.015 50.9567 57.0043 51.1696 56.9981C51.1798 56.9981 51.1899 56.9975 51.2001 56.9975C51.3003 56.9952 51.4029 56.9935 51.5065 56.9935C51.524 56.9935 51.5415 56.9935 51.5595 56.9935C51.6609 56.9941 51.764 56.9952 51.8682 56.9981C51.8874 56.9986 51.9065 56.9992 51.9257 56.9998C52.0322 57.0031 52.1403 57.0071 52.2496 57.0133C52.2631 57.0139 52.2767 57.015 52.2902 57.0156C52.3972 57.0218 52.5065 57.0286 52.6169 57.0376C52.6288 57.0382 52.6406 57.0393 52.6524 57.0399C52.7657 57.0495 52.88 57.0602 52.9967 57.0721C53.0186 57.0744 53.0412 57.0766 53.0637 57.0794C53.1769 57.0913 53.2919 57.1049 53.4085 57.1201C53.4327 57.1235 53.4575 57.1263 53.4817 57.1297C53.6006 57.1461 53.7206 57.1631 53.8423 57.1823C53.862 57.1851 53.8817 57.1885 53.9014 57.1913C54.031 57.2123 54.1623 57.2343 54.2958 57.2586C54.689 56.9913 55.0749 56.7149 55.4541 56.4301C56.036 55.9909 56.6005 55.532 57.147 55.0505C55.9836 54.7295 54.7949 54.5582 53.6299 54.4949C53.5183 54.4893 53.4068 54.4842 53.2952 54.4802Z" fill="#8EC643"/>
<path d="M29.9408 41.1934H29.1921V40.4417H29.9408V41.1934ZM29.9408 42.2249H29.1921V41.4732H29.9408V42.2249ZM28.9014 41.1934H28.1526V40.4417H28.9014V41.1934ZM28.9014 42.2249H28.1526V41.4732H28.9014V42.2249ZM34.1908 40.3248L30.6264 37.4531L26.4963 40.453H27.4445V44.034C29.1233 44.5257 30.9954 44.8659 32.9469 45.0744V40.3248H34.1908Z" fill="#09446A"/>
<path d="M28.1527 41.1936H28.9014V40.4419H28.1527V41.1936Z" fill="white"/>
<path d="M29.1921 41.1936H29.9409V40.4419H29.1921V41.1936Z" fill="white"/>
<path d="M28.1527 42.2251H28.9014V41.4734H28.1527V42.2251Z" fill="white"/>
<path d="M29.1921 42.2251H29.9409V41.4734H29.1921V42.2251Z" fill="white"/>
<path d="M79.516 33L85.684 15.648H89.92L96.1 33H92.044L90.76 29.304H84.904L83.596 33H79.516ZM85.792 25.788H89.812L87.808 19.572L85.792 25.788ZM101.223 33V19.26H96.1471V15.648H110.367V19.26H105.327V33H101.223ZM113.762 33V15.648H121.358C122.806 15.648 123.978 15.884 124.874 16.356C125.77 16.82 126.426 17.46 126.842 18.276C127.258 19.084 127.466 20.004 127.466 21.036C127.466 21.94 127.338 22.708 127.082 23.34C126.826 23.964 126.478 24.492 126.038 24.924C125.606 25.348 125.118 25.708 124.574 26.004L127.706 33H123.506L120.83 26.664H117.854V33H113.762ZM117.854 23.58H120.794C121.562 23.58 122.178 23.336 122.642 22.848C123.114 22.36 123.35 21.78 123.35 21.108C123.35 20.404 123.11 19.828 122.63 19.38C122.15 18.932 121.578 18.708 120.914 18.708H117.854V23.58ZM138.287 33V15.648H144.899C147.251 15.648 148.979 16.04 150.083 16.824C151.187 17.608 151.739 18.74 151.739 20.22C151.739 21.044 151.527 21.772 151.103 22.404C150.687 23.028 149.931 23.592 148.835 24.096C149.571 24.296 150.159 24.56 150.599 24.888C151.047 25.216 151.379 25.572 151.595 25.956C151.819 26.34 151.967 26.732 152.039 27.132C152.111 27.532 152.147 27.916 152.147 28.284C152.147 29.892 151.607 31.08 150.527 31.848C149.447 32.616 147.683 33 145.235 33H138.287ZM142.379 29.892H145.367C146.231 29.892 146.883 29.696 147.323 29.304C147.771 28.904 147.995 28.412 147.995 27.828C147.995 27.412 147.887 27.056 147.671 26.76C147.463 26.456 147.171 26.224 146.795 26.064C146.427 25.896 145.999 25.812 145.511 25.812H142.379V29.892ZM142.379 22.62H145.511C145.839 22.62 146.139 22.58 146.411 22.5C146.683 22.42 146.923 22.3 147.131 22.14C147.339 21.98 147.503 21.784 147.623 21.552C147.743 21.312 147.803 21.04 147.803 20.736C147.803 20.104 147.567 19.616 147.095 19.272C146.623 18.928 146.031 18.756 145.319 18.756H142.379V22.62ZM156.479 33V15.648H163.115C164.379 15.648 165.519 15.872 166.535 16.32C167.551 16.768 168.351 17.424 168.935 18.288C169.527 19.144 169.823 20.192 169.823 21.432C169.823 22.576 169.567 23.56 169.055 24.384C168.551 25.2 167.835 25.828 166.907 26.268C165.987 26.7 164.899 26.916 163.643 26.916H160.583V33H156.479ZM160.547 23.82H163.523C164.251 23.82 164.851 23.564 165.323 23.052C165.803 22.532 166.043 21.92 166.043 21.216C166.043 20.488 165.787 19.892 165.275 19.428C164.771 18.956 164.175 18.72 163.487 18.72H160.547V23.82ZM173.499 33V15.648H177.591L184.935 26.232V15.648H189.015V33H185.331L177.591 21.864V33H173.499Z" fill="#0F4069"/>
<path d="M80.036 53V42.878H82.514V47.239L85.825 42.878H88.52L85.601 46.77L88.94 53H86.357L83.893 48.506L82.514 50.221V53H80.036ZM89.8147 53L93.4127 42.878H95.8837L99.4887 53H97.1227L96.3737 50.844H92.9577L92.1947 53H89.8147ZM93.4757 48.793H95.8207L94.6517 45.167L93.4757 48.793ZM100.817 53V42.878H104.674C106.046 42.878 107.054 43.1067 107.698 43.564C108.342 44.0213 108.664 44.6817 108.664 45.545C108.664 46.0257 108.541 46.4503 108.293 46.819C108.051 47.183 107.61 47.512 106.97 47.806C107.4 47.9227 107.743 48.0767 107.999 48.268C108.261 48.4593 108.454 48.667 108.58 48.891C108.711 49.115 108.797 49.3437 108.839 49.577C108.881 49.8103 108.902 50.0343 108.902 50.249C108.902 51.187 108.587 51.88 107.957 52.328C107.327 52.776 106.298 53 104.87 53H100.817ZM103.204 51.187H104.947C105.451 51.187 105.832 51.0727 106.088 50.844C106.35 50.6107 106.48 50.3237 106.48 49.983C106.48 49.7403 106.417 49.5327 106.291 49.36C106.17 49.1827 106 49.0473 105.78 48.954C105.566 48.856 105.316 48.807 105.031 48.807H103.204V51.187ZM103.204 46.945H105.031C105.223 46.945 105.398 46.9217 105.556 46.875C105.715 46.8283 105.855 46.7583 105.976 46.665C106.098 46.5717 106.193 46.4573 106.263 46.322C106.333 46.182 106.368 46.0233 106.368 45.846C106.368 45.4773 106.231 45.1927 105.955 44.992C105.68 44.7913 105.335 44.691 104.919 44.691H103.204V46.945ZM110.126 53V50.515H112.681V53H110.126ZM117.593 53L117.6 42.878H119.987V51.019H124.208V53H117.593ZM129.593 53.14C128.557 53.14 127.731 52.9673 127.115 52.622C126.503 52.2767 126.062 51.7913 125.792 51.166C125.521 50.536 125.386 49.7963 125.386 48.947V42.878H127.808V49.08C127.808 49.808 127.98 50.333 128.326 50.655C128.671 50.9723 129.093 51.131 129.593 51.131C129.929 51.131 130.232 51.061 130.503 50.921C130.778 50.781 130.995 50.5617 131.154 50.263C131.312 49.9597 131.392 49.5653 131.392 49.08V42.878H133.807V48.975C133.807 49.815 133.671 50.5477 133.401 51.173C133.13 51.7937 132.687 52.2767 132.071 52.622C131.455 52.9673 130.629 53.14 129.593 53.14ZM137.9 53L134.883 42.878H137.2L138.929 48.933L140.623 42.878H142.317L144.053 48.933L145.747 42.878H148.064L145.054 53H143.22L141.47 46.938L139.706 53H137.9ZM153.532 53.14C152.496 53.14 151.67 52.9673 151.054 52.622C150.443 52.2767 150.002 51.7913 149.731 51.166C149.46 50.536 149.325 49.7963 149.325 48.947V42.878H151.747V49.08C151.747 49.808 151.92 50.333 152.265 50.655C152.61 50.9723 153.033 51.131 153.532 51.131C153.868 51.131 154.171 51.061 154.442 50.921C154.717 50.781 154.934 50.5617 155.093 50.263C155.252 49.9597 155.331 49.5653 155.331 49.08V42.878H157.746V48.975C157.746 49.815 157.611 50.5477 157.34 51.173C157.069 51.7937 156.626 52.2767 156.01 52.622C155.394 52.9673 154.568 53.14 153.532 53.14ZM164.832 53V44.985H161.871V42.878H170.166V44.985H167.226V53H164.832ZM171.446 53V42.878H173.833V53H171.446ZM175.903 53V42.878H179.417L181.391 49.57L183.386 42.878H186.879V53H184.485V45.461L182.28 53H180.502L178.297 45.482V53H175.903ZM192.989 53.14C191.953 53.14 191.127 52.9673 190.511 52.622C189.9 52.2767 189.459 51.7913 189.188 51.166C188.917 50.536 188.782 49.7963 188.782 48.947V42.878H191.204V49.08C191.204 49.808 191.377 50.333 191.722 50.655C192.067 50.9723 192.49 51.131 192.989 51.131C193.325 51.131 193.628 51.061 193.899 50.921C194.174 50.781 194.391 50.5617 194.55 50.263C194.709 49.9597 194.788 49.5653 194.788 49.08V42.878H197.203V48.975C197.203 49.815 197.068 50.5477 196.797 51.173C196.526 51.7937 196.083 52.2767 195.467 52.622C194.851 52.9673 194.025 53.14 192.989 53.14ZM199.077 53V42.878H203.508C204.353 42.878 205.036 43.0157 205.559 43.291C206.082 43.5617 206.464 43.935 206.707 44.411C206.95 44.8823 207.071 45.419 207.071 46.021C207.071 46.5483 206.996 46.9963 206.847 47.365C206.698 47.729 206.495 48.037 206.238 48.289C205.986 48.5363 205.701 48.7463 205.384 48.919L207.211 53H204.761L203.2 49.304H201.464V53H199.077ZM201.464 47.505H203.179C203.627 47.505 203.986 47.3627 204.257 47.078C204.532 46.7933 204.67 46.455 204.67 46.063C204.67 45.6523 204.53 45.3163 204.25 45.055C203.97 44.7937 203.636 44.663 203.249 44.663H201.464V47.505Z" fill="#0F4069"/>
</svg>
