<svg width="447" height="141" viewBox="0 0 447 141" fill="none" xmlns="http://www.w3.org/2000/svg">
<path d="M446.5 0C444.362 0.670951 442.109 1.32103 439.748 1.9541C436.611 2.23257 432.123 2.63925 426.469 3.17773C414.694 4.29907 397.857 5.98695 377.608 8.25293C337.111 12.7849 282.96 19.6306 228.354 28.8828C173.752 38.1342 118.675 49.7953 76.333 63.9639C55.1644 71.0474 37.1538 78.7656 23.9727 87.1367C10.8118 95.495 2.36128 104.57 0.508789 114.407L0.5 114.453V137.461C0.328516 137.972 0.160982 138.484 0 139V46C0 46 -7.62939e-06 16.5014 40 1L446.5 0Z" fill="url(#paint0_linear_129_19)"/>
<path d="M0 114.5V141C4.49946 44.501 444.5 0 444.5 0C444.5 0 14.4995 37.501 0 114.5Z" fill="#F0B50B" fill-opacity="0.5"/>
<defs>
<linearGradient id="paint0_linear_129_19" x1="7.96675e-08" y1="61.5" x2="120.5" y2="32.5" gradientUnits="userSpaceOnUse">
<stop stop-color="#DAA211"/>
<stop offset="1" stop-color="#FFC107"/>
</linearGradient>
</defs>
</svg>
